<svg width="47" height="11" viewBox="0 0 47 11" fill="none" xmlns="http://www.w3.org/2000/svg">
<g clip-path="url(#clip0_1_313)">
<path d="M38.9004 10.4503C43.0612 10.4503 46.446 8.10631 46.446 5.2251C46.446 2.3439 43.0612 0 38.9004 0C34.9648 0 31.7252 2.09747 31.386 4.7628H25.9551V3.66366L0.000102997 3.66366V6.78629L25.9553 6.78629V5.68728H31.3861C31.7253 8.35274 34.9648 10.4503 38.9004 10.4503ZM24.953 5.86193L1.00251 5.86193V4.5884L24.953 4.5884V5.86193ZM32.3569 5.2251C32.3569 2.85385 35.2925 0.924742 38.9006 0.924742C42.5086 0.924742 45.4442 2.85385 45.4442 5.2251C45.4442 7.59649 42.5086 9.52572 38.9006 9.52572C35.2925 9.52572 32.3569 7.59649 32.3569 5.2251Z" fill="#DCCA87"/>
</g>
<defs>
<clipPath id="clip0_1_313">
<rect width="46.4459" height="10.4503" fill="white"/>
</clipPath>
</defs>
</svg>
